<?xml version="1.0" encoding="utf-8"?>
<!-- Generator: Adobe Illustrator 21.0.2, SVG Export Plug-In . SVG Version: 6.00 Build 0)  -->
<svg version="1.1" id="Layer_1" xmlns="http://www.w3.org/2000/svg" xmlns:xlink="http://www.w3.org/1999/xlink" x="0px" y="0px"
	 viewBox="0 0 150 150" style="enable-background:new 0 0 150 150;" xml:space="preserve">
<style type="text/css">
	.st0{ fill:#026937; }
	.st1{ fill:#6ECB98;stroke:#026937;stroke-width:0.4185;stroke-miterlimit:10; }
	.st2{ fill:none;stroke:#FFE900;stroke-width:0.4185;stroke-miterlimit:10; }
	.st3{ fill-rule:evenodd;clip-rule:evenodd;fill:#FFFFFF;stroke:#026937;stroke-width:0.9766;stroke-miterlimit:10; }
	.st4{ fill:#00833E;stroke:#F5E600;stroke-width:0.4185;stroke-miterlimit:10; }

	.green {
		transform-origin: 50% 50%;
		animation: green-anim 10s infinite linear;
	}
	.yellow {
		transform-origin: 50% 50%;
		animation: yellow-anim 10s infinite linear;
	}

	@keyframes green-anim {
		from {
			transform: rotate(0deg);
		}
		to {
			transform: rotate(360deg);
		}
	}
	@keyframes yellow-anim {
		from {
			transform: rotate(0deg);
		}
		to {
			transform: rotate(-360deg);
		}
	}
</style>
<path class="st0" d="M73.1,37.8c1.5-1.5,2.9-3,4.4-4.3c2.3-2.1,4.9-3.9,7.7-5.3c2.4-1.2,4.9-2.1,7.5-2.7c2.6-0.6,5.2-0.9,7.9-0.7
	c12.1,0.7,22,8.4,25.7,20.2c1.5,4.6,1.9,9.4,1.6,14.3c-0.6,8.2-3.3,15.7-7.1,22.8c-3.2,6-7.2,11.6-11.6,16.8
	c-6.1,7.3-12.8,13.9-20,20c-5,4.3-10.2,8.3-15.5,12.2c-0.4,0.3-0.7,0.3-1.1,0c-9.6-7-18.8-14.5-27.2-23c-1.9-2-3.8-4-5.6-6
	c-4.9-5.5-9.3-11.3-12.9-17.7c-3.5-6.1-6.2-12.4-7.6-19.3c-1.5-7.3-1.5-14.6,1.2-21.7c3.8-9.8,10.8-15.8,20.9-18.1
	c2.2-0.5,4.5-0.7,6.8-0.5c1.9,0.2,3.8,0.3,5.7,0.7c4,0.9,7.7,2.5,11,4.9c2.9,2,5.5,4.3,7.8,6.9C72.9,37.6,73,37.7,73.1,37.8z
	 M73.2,40c-0.3-0.4-0.6-0.8-0.9-1.1c-0.3-0.4-0.7-0.7-1-1.2c-0.8-1.1-1.7-1.7-3.1-1.1c-0.1,0-0.2,0-0.3,0
	c-6.9,1.3-13.2,4.2-18.5,8.9c-7.2,6.3-11.6,14.2-12.7,23.9c-0.6,5.5,0.1,10.9,2,16.1c2.4,6.8,6.4,12.5,11.8,17.1
	c7.8,6.6,16.7,9.8,26.9,8.9c5-0.4,9.7-1.8,14-4.4c12.5-7.6,18.8-19.1,19.4-33.8c0.1-3.9-0.5-7.8-1.7-11.6c-2.5-8-7.1-14.4-13.8-19.3
	c-5.4-3.9-11.4-5.9-17.9-6.4c-0.3,0-0.6,0.1-0.8,0.3C75.3,37.6,74.3,38.7,73.2,40z M31.8,43.5c-0.4,0-0.6,0.1-0.8,0.1
	c-1.9-0.2-3.7,0.3-5.4,1.2c-1.6,0.8-3.2,1.6-4.8,2.5c-0.1,0.1-0.2,0.2-0.2,0.3c-0.2,0.7-0.3,1.3-0.1,2c0.5,1.4,1,2.9,1.5,4.3
	c0.2,0.6,0.4,1.2,0.7,1.7c0.6,0.8,1.2,1.5,1.9,2.3c0.1,0.2,0.2,0.4,0.3,0.5c-0.2,0.1-0.3,0.2-0.5,0.2c-0.2,0-0.5,0-0.8,0.1
	c-1.3,0.2-2.5,0.4-3,1.8c-0.5,1.4,0,2.7,1,3.8c0.3,0.3,0.8,0.6,1.1,0.9c0.1,0.1,0.2,0.2,0.3,0.4c-0.1,0.1-0.2,0.2-0.4,0.3
	c-0.4,0.2-0.8,0.4-1.2,0.6c-0.3,0.1-0.3,0.3-0.2,0.7c1,4,2.5,7.9,4.3,11.6c0.1,0.2,0.4,0.3,0.5,0.3c1.5-0.1,2.2,0.3,2.9,1.7
	c1.3-0.3,2.7-0.6,4.1-0.9c-3.8-1.5-6.3-4.9-9.8-6.7c0.8-0.5,1.5-0.9,2.2-1.3c2.4-1.5,4.3-3.6,7.3-4.3c-1.3-0.3-2.4-0.6-3.6-0.8
	c-0.6,1.2-1.7,1.6-2.9,1.3c-1-0.3-1.8-1.6-1.7-2.7c0.2-1.2,1.2-2.2,2.5-2.2c0.5,0,1,0.2,1.4,0.4c0.8,0.5,1,1.4,1,2.3
	c1.4,0.2,2.6,0.3,3.7,0.4c-2.2-3.1-4.5-6.4-6.8-9.6c1.8-0.1,3.6-0.5,5.3-1.2c1-0.4,2-0.8,3-1.1c0.8-0.2,1.6-0.3,2.4-0.5
	c-1-0.6-2-1.2-3-1.8c-0.8,1.3-2.2,1.7-3.4,1c-1.1-0.6-1.5-2.2-0.9-3.6c0.6-1.3,1.8-1.8,3.2-1.4c1.4,0.5,2,1.7,1.6,3.4
	c1.2,0.5,2.4,1,3.7,1.5c-0.9-1.6-1.4-3.2-1.7-4.9c-0.1-1-0.2-2-0.4-2.9c-0.3-1.5-0.7-3-1.1-4.5c1.2,0.1,2.5,0.2,3.8,0.2
	c1,0,1.9-0.2,2.9-0.2c1.3,0,2.6,0.1,3.7,0.2c-0.4-0.6-0.9-1.2-1.4-1.9c-0.2,0.1-0.3,0.2-0.4,0.2c-1.1,0.6-2,0.3-2.9-0.4
	c-0.9-0.7-1.3-1.6-1-2.7c0.4-1.2,1.3-1.9,2.5-2.2c1.2-0.3,2.3,0.1,2.9,1.3c0.6,1.2,0.5,2.3-0.4,3.3c1,1.1,1.9,2.1,2.8,3
	c0-1.4-0.1-2.8,0-4.3c0.1-2.7,0.3-5.3,0.5-8c0-0.1,0-0.2,0.1-0.4c1.5,1.2,3.1,2,5,2.4c1.9,0.4,3.6,1.1,4.9,2.5c0,0,0.1,0,0.1,0
	c-0.3-0.9-0.6-1.8-1-2.7c-1.4,0.4-2.4-0.1-3.1-1.2c-0.7-1-0.5-2,0.3-3c-1.7-0.3-3.2-0.6-4.8-0.7c-2.1-0.2-4.2-0.1-6.3,0.2
	c-2.4,0.4-4.6,1.1-6.8,2c-0.2,0.1-0.3,0.2-0.4,0.4c-0.9,2.7-1,5.3,0.4,7.9c0.1,0.2,0.2,0.4,0.3,0.8c-0.3-0.1-0.6-0.1-0.8-0.1
	c-0.4-0.1-0.9-0.3-1.3-0.4c-1.7-0.4-3.2,0.3-3.7,1.9c-0.4,1.1-0.1,2.2,0.4,3.2C31.3,42.5,31.5,42.9,31.8,43.5z M113.1,51.9
	c-0.4-1.5,0.2-2.7,1.5-3.3c1.3-0.5,2.4-0.1,3.1,1.2c0.8,1.4,0.7,2.8-0.4,3.6c-0.5,0.3-1.1,0.6-1.7,0.6c-0.9,0.1-1.5-0.6-2-1.2
	c-1.1,0.6-2.2,1.1-3.5,1.7c0.4,0,0.7,0,1,0c1.4,0,2.8,0.3,4,1c2.1,1.1,4.1,2.3,6.5,2.4c-0.1,0.2-0.1,0.2-0.2,0.3
	c-1,1.4-2.1,2.8-3.1,4.2c-1.1,1.6-2,3.4-3.8,4.6c1.4-0.1,2.6-0.3,3.8-0.4c0-1.5,1-2.7,2.3-2.9c1.4-0.2,2.8,0.6,3.2,1.8
	c0.4,1.2-0.2,2.6-1.3,3.2c-1.4,0.8-2.7,0.4-4.1-1.3c-1.1,0.3-2.2,0.5-3.5,0.8c1.8,0.5,3.1,1.5,4.2,2.7c0.6,0.7,1.2,1.3,1.9,1.9
	c0.6,0.5,1.3,1,2,1.7c0.8-2.5,1.5-4.8,2.2-7.1c0.4-1.5,0.4-1.5-0.9-2.3c0,0,0-0.1-0.1-0.1c0.2-0.1,0.5-0.3,0.7-0.5
	c0.5-0.4,1.1-0.8,1.2-1.6c0.1-0.7,0.1-1.5,0.3-2.2c0.2-0.8-0.2-1.3-0.8-1.7c-0.9-0.7-1.9-0.7-2.9-0.9c-0.2,0-0.3-0.1-0.5-0.2
	c0.1-0.1,0.2-0.3,0.3-0.4c0.6-0.8,1.4-1.6,1.8-2.6c0.7-1.5,1.1-3,1.6-4.6c0.1-0.4,0.1-1,0.1-1.4c0-0.5-0.2-1-0.3-1.4
	c-0.1-0.7-0.4-1.2-1.2-1.5c-0.5-0.2-1-0.5-1.5-0.8c-2.3-1.3-4.7-2.3-7.4-2c-0.5,0.1-0.6-0.1-0.3-0.7c0.3-0.8,0.8-1.6,0.9-2.4
	c0.4-1.8-0.8-3.6-2.6-3.7c-0.8,0-1.5,0.3-2.3,0.4c-0.3,0.1-0.6,0.1-1.1,0.2c0.2-0.5,0.3-0.7,0.4-1c1.1-2.2,1.2-4.5,0.5-6.9
	c-0.1-0.2-0.3-0.5-0.4-0.5c-3.5-1.7-7.2-2.5-11.1-2.6c-1,0-2,0.1-3,0.2c-1.3,0.1-2.6,0.3-3.9,0.5c0.7,1.4,0.7,2.3,0.1,3.1
	c-0.7,1-1.7,1.6-3,1.2c-0.3,0.8-0.6,1.6-0.9,2.4c0.1,0,0.1,0,0.1,0c0.1-0.1,0.2-0.2,0.3-0.2c1.1-1,2.4-1.6,3.9-1.9
	c0.9-0.1,1.8-0.2,2.7-0.2c1.3,0,2.5-0.3,3.5-1.1c0.2-0.1,0.4-0.2,0.5-0.3c0.2,2,0.4,3.9,0.5,5.9c0.1,1.3,0.2,2.5,0.1,3.8
	c0,0.7-0.4,1.5-0.6,2.2c0.9-0.8,1.8-1.6,2.7-2.4c-1.1-1.1-1.1-2.4-0.2-3.6c0.9-1.1,2.3-1.2,3.7-0.3c1.2,0.9,1.6,2.2,0.8,3.3
	c-0.8,1.3-2.2,1.7-3.6,1c-0.8,0.9-1.7,1.8-2.5,2.7c0,0,0.1,0,0.1,0c0.2-0.1,0.3-0.1,0.5-0.2c1.7-0.7,3.5-1.2,5.3-1.1
	c1.4,0.1,2.8,0.2,4.2,0.3c0.6,0,1.1,0,1.7,0c-0.7,1.5-0.9,3.1-1.1,4.7c-0.2,1.7-0.5,3.3-1.3,4.8c-0.5,0.8-1,1.6-1.4,2.3
	C110.4,52.9,111.7,52.4,113.1,51.9z M81.7,123.5c-1.4-1-2.6-2-3.8-2.9c-1.4-1-2.7-2-3.5-3.6c0,0-0.1,0-0.2,0c0,0.5,0,0.9,0,1.4
	c0,0.5-0.1,1-0.1,1.4c1.4,0.3,2.3,1.6,2.1,3.1c-0.1,1.2-1.1,2.1-2.4,2.2c-1.3,0-2.4-0.9-2.6-2.2c-0.2-1.5,0.5-2.6,2-3.1
	c-0.1-1.2-0.1-2.5-0.2-3.6c-0.6,0.7-1.2,1.6-2,2.2c-1.2,0.9-2.6,1.7-3.9,2.4c-1.1,0.6-2.1,1.2-3.3,1.9c0.2,0.2,0.3,0.3,0.3,0.3
	c2.9,2.2,5.8,4.4,8.7,6.5c0.3,0.2,0.5,0.1,0.8-0.1c1.5-1.1,3-2.2,4.4-3.3C79.2,125.4,80.3,124.5,81.7,123.5z M62.7,122
	c1.3-0.7,2.5-1.4,3.7-2.1c1.1-0.6,2.4-1.1,3.4-1.9c1.9-1.2,2.8-3.1,3.4-5.3c-4.4-0.1-8.6-1-12.7-2.7c-0.1,0.9-0.3,1.7-0.3,2.6
	C59.9,116.1,61.7,119,62.7,122z M40.5,54.4c2.2-3.7,5-6.9,8.2-9.7c-1.5-1.5-3.2-2.8-5.4-2.8c-2.2,0-4.4,0.3-6.6,0.4
	c0.1,0.6,0.2,1.1,0.3,1.7c0.2,2,0.4,3.9,0.7,5.9C37.9,51.8,39.1,53.1,40.5,54.4z M86.1,110.6c-3.9,1.4-7.9,2.1-12,2.2
	c0.6,3,1.9,5.4,4.4,6.9c1.1,0.6,2.1,1.4,3.1,2.1c0.2,0.1,0.4,0.3,0.5,0.5c0.6-0.9,1.1-1.7,1.6-2.6c0.5-0.8,1-1.5,1.5-2.3
	C86.5,115.4,86.6,113.1,86.1,110.6z M98.8,32.2c-1,0.1-2.2,0.3-3.3,0.2c-3.8-0.3-6,2.2-8.3,4.9c4.1,1.5,7.7,3.7,11.1,6.5
	c0.4-1.5,0.9-2.8,1.2-4.2c0.2-1,0.3-2.1,0.2-3.1C99.5,35,99.1,33.5,98.8,32.2z M49.1,31.5c-0.1,0.7-0.1,1.5-0.2,2.3
	c-0.2,2.1-0.4,4.2-0.5,6.3c-0.1,1.4,0.3,2.7,1,4c3.3-2.6,6.8-4.7,10.7-6.3c-1.1-1.2-2-2.3-3.1-3.3c-1.1-1.1-2.5-1.8-4.1-2.1
	C51.6,32.2,50.4,31.8,49.1,31.5z M111,42.9c-4.4-0.9-9-0.3-11.8,1.6c3.2,2.9,5.8,6.2,7.9,10c0.3-0.4,0.6-0.7,0.8-1.1
	c0.7-1.1,1.5-2.1,2-3.3c0.4-1,0.6-2.1,0.7-3.1C110.8,45.6,110.9,44.2,111,42.9z M121.2,74.8c-0.9-1-1.8-2-2.7-3
	c-0.9-1.1-2-2-3.3-2.5c-1.2-0.5-2.5-0.7-3.7-0.8c0.1,2,0.2,3.9,0.1,5.8c-0.1,1.9-0.3,3.8-0.5,5.8c0.5,0,1.1,0,1.7,0
	c2.2-0.1,4.2-0.8,5.7-2.5C119.4,76.5,120.4,75.7,121.2,74.8z M111.3,67.6c2-0.9,3.6-2,4.8-3.8c1-1.7,2-3.4,2.9-5
	c-0.9-0.5-1.9-0.9-2.7-1.5c-2.6-1.8-5.6-2-8.7-1.9C109.4,59.3,110.7,63.3,111.3,67.6z M40,55.2c-0.3-0.1-0.5-0.1-0.7-0.1
	c-1.7-0.1-3.5-0.2-5.2,0.4c-1.9,0.7-3.8,1.5-5.6,2.2c1,1.6,2,3.2,3.1,4.9c0.9,1.4,1.9,2.8,3.2,3.8c0.3,0.2,0.7,0.4,1.1,0.6
	C36.6,62.7,38,58.9,40,55.2z M35.9,79.5c-0.7-3.9-0.7-7.7-0.2-11.6c-2.4,0.3-4.5,0.9-6.4,2.3c-0.9,0.7-1.7,1.4-2.6,2.1
	c-0.3,0.3-0.7,0.5-1,0.7C28.8,75.7,31.5,78.9,35.9,79.5z M40.4,92c-2.1-3.7-3.5-7.6-4.3-11.6c-2.8,1.3-4.6,3.7-6.5,6
	c0.6,0.9,1.2,1.7,1.7,2.6c0.8,1.5,2,2.2,3.5,2.7C36.6,92.1,38.4,92.3,40.4,92z M106.6,92.8c1.7,0.5,3.4,0.8,5.2,0.6
	c0.2,0,0.4-0.2,0.5-0.4c1.3-1.9,2.7-3.9,4-5.9c0.1-0.2,0.2-0.5,0.1-0.7c-1-2.6-2.9-4.3-5.4-5.5C110.1,85.1,108.7,89,106.6,92.8z
	 M59.8,109.8c-3.8-1.7-7.2-3.8-10.3-6.5c-0.9,1.4-1.4,2.9-1.7,4.5c-0.1,0.6,0,1,0.5,1.4c1.3,1.2,2.5,2.4,3.7,3.5
	c1.4,1.3,1.4,1.3,3.2,0.7C57.1,112.7,58.6,111.5,59.8,109.8z M48.8,102.7c-3.2-2.9-5.9-6.2-8.1-10c-1.4,1-2.7,2.7-3.1,4.3
	c-0.1,0.2,0,0.5,0.2,0.7c1.9,2.3,3.9,4.5,5.9,6.7c0.1,0.2,0.4,0.3,0.6,0.3C46,104.5,47.5,104,48.8,102.7z M87,110.3
	c1.4,1.7,2.8,3.2,4.6,4.3c0.4,0.2,0.6,0.2,0.9-0.1c1.6-1.5,3.1-3,4.8-4.4c0.8-0.7,1.1-1.4,1-2.4c-0.1-1.2-0.3-2.4-0.9-3.6
	C94.2,106.7,90.8,108.8,87,110.3z M98,103.6c1.2,0.8,2.3,1.6,3.5,2.3c0.2-0.2,0.2-0.3,0.3-0.5c1.7-1.8,3.4-3.6,5-5.5
	c1.6-1.8,1.6-2.1,0.7-4.3c-0.1-0.2-0.1-0.3-0.2-0.5c-0.3-0.6-0.7-1.1-1-1.8C104,97.3,101.3,100.6,98,103.6z M34.5,29.1
	c-0.5,0.3-0.9,0.6-1.3,0.7c-0.4,0.2-0.6,0.5-0.5,0.9c0.1,0.9,0.3,1.9,0.5,2.8c0.1,0.3,0.2,0.6,0.2,1c-0.3,0-0.6,0-1-0.1
	c-1.6-0.4-2.9-0.1-4,1.1c-1.2,1.4-1.3,3.1-0.4,5c0.1,0.3,0.3,0.6,0.5,1c-0.4,0-0.6,0-0.9,0c-2,0-3.8,0.5-5.4,1.6
	c-0.2,0.1-0.4,0.3-0.5,0.5c-0.3,0.6-0.5,1.3-0.8,2.1c3-1.4,5.7-3.3,9.2-2.9C29,40.6,29,39,30.1,37.4c1.2-1.7,2.9-2.2,4.9-1.4
	C33.7,33.8,33.9,31.5,34.5,29.1z M116.6,42.4c3.1-0.4,5.6,1.1,8.3,2.4c-0.3-0.7-0.5-1.4-0.8-1.9c-0.2-0.3-0.5-0.7-0.8-0.8
	c-1.3-0.7-2.7-0.9-4.2-0.9c-0.2,0-0.5-0.1-0.7-0.1c0.1-0.3,0.1-0.5,0.2-0.8c0.2-0.4,0.4-0.9,0.5-1.3c0.9-2.7-1.7-5.8-4.4-5
	c-0.5,0.1-0.9,0.2-1.5,0.3c0.1-0.4,0.2-0.7,0.3-1c0.2-0.8,0.3-1.7,0.5-2.5c0-0.2-0.1-0.4-0.2-0.5c-0.4-0.3-0.8-0.5-1.3-0.8
	c0.4,2.1,0.4,4.1-0.7,6.1c2-0.9,3.7-0.6,4.9,1.2C117.9,38.6,118,40.5,116.6,42.4z M85.7,29.5c-2.9,1.5-5.5,3.4-7.8,5.5
	c2.8,0.6,5.6,1.2,8.5,1.8C86.8,34.4,87.1,31.9,85.7,29.5z M68.8,35.3c-2.2-2.1-4.7-3.9-7.4-5.4c-1.4,2.5-1.1,5-0.7,7.5
	C63.4,36.7,66.1,36,68.8,35.3z M31.7,30.9c-3.9,2.7-6.8,6.3-9,10.8c1.5-0.8,2.9-1.1,4.5-1c-1.3-1.9-1-3.7,0.1-5.3
	c1.2-1.9,2.8-2.8,5-2.1C32,32.5,31.9,31.7,31.7,30.9z M20,51.5c-0.3,2.5-0.5,5.1-0.1,7.7c0.9-1.2,2-1.6,3.4-1.5
	C21.4,56,20.8,53.7,20,51.5z M42.6,38.6c1.1,0,1.7-0.7,1.7-1.9c0-0.9-0.6-1.7-1.5-1.7c-1,0-2.1,0.9-2.1,1.9
	C40.7,37.8,41.6,38.5,42.6,38.6z M122.7,66.2c0-1-1.1-1.7-2.2-1.5c-0.7,0.2-1.5,1-1.5,1.8c0,0.7,0.6,1,1.2,1.2
	C121.4,68.2,122.7,67.4,122.7,66.2z M87.4,114.4c-0.2,1.4-0.6,2.6-1.3,3.7c-0.7,1.1-1.4,2.2-2,3.3c1.6-1.1,3-2.3,4.4-3.5
	c0.1-0.1,0.2-0.1,0.2-0.2c0.1-0.1,0.2-0.3,0.1-0.4C88.4,116.4,87.9,115.4,87.4,114.4z M122.3,75.9c-0.1,0-0.1-0.1-0.2-0.1
	c-1,1-2.1,1.9-3.1,2.9c-0.9,0.8-1.8,1.6-3,1.9c-0.1,0-0.2,0.1-0.4,0.2c0.5,0.1,0.9,0.2,1.3,0.3c0.4,0.1,0.8,0.2,1.2,0.4
	c0.4-1.1,1-1.7,2.1-1.9c0.2,0,0.4-0.1,0.5-0.3C121.3,78.1,121.8,77,122.3,75.9z M117.1,51.6c0-1.1-0.7-2-1.5-2c-1,0-1.8,0.8-1.8,1.8
	c0,0.9,0.9,1.6,2,1.6C116.5,52.9,117.1,52.3,117.1,51.6z M33.6,50.7c-0.1-0.3-0.1-0.6-0.3-0.8c-0.4-0.6-1.7-1-2.3-0.7
	c-0.6,0.3-1,1.2-0.8,2c0.1,1,0.7,1.3,1.6,1.1c0.3-0.1,0.6-0.3,0.9-0.4C33.3,51.7,33.6,51.4,33.6,50.7z M28.8,85
	c1.3-1.4,2.6-2.8,3.7-3.9c-0.8,0.1-2.2,0.2-3.3,0.4c-0.4,0.8-0.7,1.5-1.1,2.2C28.3,84.1,28.5,84.6,28.8,85
	C28.8,85.1,28.9,85.1,28.8,85z M104.5,39.1c1.1,0,1.8-0.5,1.9-1.4c0-0.9-0.8-1.7-1.8-1.7c-0.8,0-1.5,0.7-1.5,1.5
	C103,38.4,103.6,39.1,104.5,39.1z M90.2,30.3c0.8,0,1.4-0.3,1.8-0.8c0.4-0.5,0.4-1.2,0.1-1.7c-0.3-0.5-0.8-0.7-1.3-0.4
	c-0.3,0.1-0.6,0.2-0.8,0.3c-0.3,0.1-0.7,0.2-0.7,0.3c-0.1,0.5-0.1,1.1,0,1.5C89.3,30,89.7,30.4,90.2,30.3z M56.6,30.4
	c0.3-0.2,0.7-0.3,0.9-0.5c0.8-0.7,0.6-1.6-0.3-2c-0.5-0.2-0.9-0.3-1.4-0.5c-0.2,0-0.4,0-0.5,0c-1,0.6-0.9,1.8,0,2.4
	C55.7,30.1,56.1,30.2,56.6,30.4z M57.1,117.3c0.5-1.6,1-3.1,1.4-4.4c-1.3,0.7-2.7,1.4-4,2.1C55.3,115.7,56.2,116.5,57.1,117.3z
	 M75.1,122.5c0-0.8-0.9-1.9-1.5-1.9c-0.6,0-1.4,1.1-1.4,1.8c0,0.9,0.7,1.6,1.5,1.6C74.5,124,75.1,123.4,75.1,122.5z M117.3,85.5
	c0.3-0.5,0.6-1,0.9-1.5c0.1-0.1,0.1-0.3,0.1-0.4c-0.1-0.4-0.2-0.8-0.3-1.3c-1.2-0.2-2.4-0.3-3.4-0.5C115.4,83,116.3,84.2,117.3,85.5
	z M124,57.1c0.9,0.3,1.8,0.5,2.6,0.8c0-1.7,0-3.5,0-5.2C125.8,54.3,125.2,55.9,124,57.1z M59.2,114.6c-0.5,1.1-1,2.1-1.5,3.2
	c0.5,0.4,1,0.9,1.5,1.3c0.5,0.4,1,0.8,1.5,1.2C60,118.4,59.3,116.6,59.2,114.6z M25.5,65.4c0,0.8,0.7,1.5,1.4,1.5
	c0.6,0,1.4-0.5,1.4-1c0.1-0.8-0.7-1.7-1.4-1.8C26.3,64.1,25.6,64.7,25.5,65.4z M120.5,36.3c-0.1,0-0.1,0-0.2,0.1
	c0.5,1.4,0.4,2.7-0.5,3.9c1.1,0.1,2.2,0.3,3.4,0.4C122.4,39.2,121.4,37.7,120.5,36.3z M59.2,33.5c0.3-1.3,0.7-2.8,1-4.2
	c-0.3-0.1-0.8-0.4-1.2-0.6c-0.1,0.9-0.4,1.7-1.2,2.1C58.3,31.7,58.8,32.7,59.2,33.5z M87.9,33.3c0.5-0.9,1-1.8,1.3-2.5
	c-0.5-0.8-0.9-1.6-1.4-2.3c-0.3,0.1-0.7,0.3-1.2,0.5C87.6,30.4,87.9,31.8,87.9,33.3z M88.3,113.5c0.4,1.2,0.8,2.4,1.1,3.6
	c0.6-0.5,1.1-1,1.6-1.4C90.2,115,89.3,114.3,88.3,113.5z M27.4,82.7c0.6-0.5,1-1.3,0.8-1.6c-0.4-0.6-1.2-1.3-2.1-0.9
	C26.5,81,27,81.8,27.4,82.7z M35,94.3c0.8-0.4,1.5-0.7,2.2-1.1c-1.2-0.2-2.3-0.5-3.5-0.7C34.2,93.1,34.6,93.7,35,94.3z M109.1,97.1
	c0.4-0.5,0.9-1.1,1.3-1.6c-0.8-0.4-1.6-0.7-2.3-1C108.4,95.4,108.7,96.2,109.1,97.1z M114.6,32.9c0.9,0,1.7,0,2.6,0
	c-0.7-0.6-1.4-1.1-2.1-1.7C114.9,31.8,114.8,32.4,114.6,32.9z M37.8,94.3c-0.7,0.3-1.4,0.6-2.1,0.9c0.3,0.4,0.6,0.8,0.9,1.2
	C37.1,95.7,37.4,95,37.8,94.3z M119,82.7c0.4-0.7,0.7-1.3,1.1-2C118.9,81,118.5,81.7,119,82.7z M99.1,106.4c0.1,0.5,0.1,1,0.2,1.5
	c0.3-0.3,0.5-0.5,0.7-0.7C99.7,106.9,99.4,106.7,99.1,106.4z M46.8,107.7c0.1-0.6,0.3-1.1,0.4-1.7c-0.4,0.4-0.7,0.7-1,1.1
	C46.3,107.3,46.5,107.4,46.8,107.7z"/>
<path class="st1 green" d="M102,79.3c2.6,1.5,4.1,4.2,6.2,6.2c-1.6,0-2.7,0.9-4,1.6c-2.2,1.3-2.6,1.4-5.3,1.6c1.4,1.2,1.7,2.8,1.9,4.5
	c0.2,1.4,0.7,2.8,1.1,4.2c-2-0.3-4.1,0-6.3,0.4c-1,0.2-1.9-0.1-2.7-0.6c0.1,2.9,0.3,5.9,0.4,9c-1.6-1.6-3.6-1.3-5.4-1.7
	c-1.4-0.4-2.7-0.9-3.7-2c0,0-0.1,0.1-0.1,0.1c0.2,1.6-0.4,2.9-1.2,4.2c-0.9,1.4-1.6,2.8-1.9,4.5c-0.1,0-0.1,0-0.2,0
	c-1.3-1.5-3-2.6-4.7-3.5c-1.1-0.6-1.8-1.5-2.3-2.8c-0.6,1.4-1.3,2.4-2.5,3c-0.6,0.3-1.3,0.8-1.8,1.2c-0.9,0.7-1.7,1.5-2.6,2.3
	c-0.2-0.5-0.3-1.1-0.5-1.5c-0.6-1.1-1.2-2.1-1.8-3.2c-0.6-1.1-1.2-2.3-1-3.8c-0.2,0.2-0.3,0.2-0.4,0.3c-1.2,1.3-2.8,1.7-4.5,2
	c-1.4,0.3-2.8,0.6-4.1,1.5c0-3,0-5.9,0-8.8c-1.3,0.9-2.8,0.6-4.3,0.4c-1.6-0.2-3.1,0-4.5,0c0.3-1.1,0.6-2.3,0.9-3.5
	c0.1-0.7,0.1-1.4,0.2-2.1c0.1-1.1,0.5-2.2,1.3-3.2c-2.2,0.2-3.9-0.9-5.7-1.7c-1.1-0.5-2.2-0.9-3.3-1.3c1.7-2,3.5-4.1,5.3-6.2
	c-0.7-0.4-1.5-0.8-2.3-1.2c-0.6-0.3-1.1-0.7-1.6-1.1c-1.1-0.8-2.2-1.7-3.2-2.5c1.3-1.1,2.7-2.3,4.1-3.3c0.9-0.7,2-1.1,2.9-1.5
	c-1.8-1.9-3.7-4-5.6-6.2c1.6-0.2,3-0.9,4.3-1.7c1.4-0.9,2.9-1.6,4.8-1.4c-1.2-1.3-1.3-2.8-1.6-4.3c-0.3-1.5-0.7-3-1.1-4.3
	c0.6,0,1.5,0.1,2.3,0c1.1-0.1,2.1-0.2,3.2-0.4c1.2-0.2,2.5-0.2,3.4,0.4c-0.1-2.9-0.3-5.8-0.4-8.8c1.6,1.2,3.4,1.3,5.1,1.6
	c1.7,0.3,3.2,1,4.4,2.5c0-0.8,0-1.5,0-2.2c0-1,0.4-1.9,1-2.7c0.9-1.1,1.5-2.4,1.7-3.9c0-0.1,0.1-0.2,0.1-0.5
	c1.3,1.8,3.2,2.7,4.9,3.7c0.9,0.5,1.4,1.4,1.8,2.3c0.1,0.3,0.2,0.6,0.3,0.9c0.1-0.3,0.2-0.6,0.3-0.8c0.4-1.3,1.2-2.2,2.4-2.9
	c1.6-0.9,3.2-1.8,4.3-3.6c0.1,0.4,0.2,0.6,0.3,0.8c0.4,1,0.8,2.1,1.4,3c1,1.6,2,3.1,1.6,5.2c1.3-1.9,3.3-2.3,5.3-2.7
	c1.3-0.2,2.6-0.8,3.9-1.2c-0.2,2.8,0.3,5.8-0.5,8.9c1.4-1.2,2.9-0.9,4.5-0.8c1.6,0.2,3.2,0,4.8,0c-0.2,0.6-0.5,1.1-0.6,1.7
	c-0.2,1-0.4,2-0.6,3.1c-0.2,1.5-0.5,2.9-1.6,4c0.1,0,0.1,0.1,0.2,0.1c2.2-0.2,4.1,0.6,5.8,1.8c1,0.7,2.1,1,3.4,1.1
	c-2.2,2.1-3.6,4.7-6.1,6.5c0.4,0.1,0.6,0.1,0.9,0.1c1.2,0.2,2.2,0.8,3.1,1.6c1.2,1,2.4,2,3.5,2.9c-0.8,0.7-1.7,1.5-2.5,2.3
	c-1.4,1.3-2.9,2.3-4.8,2.5C102.1,79.2,102,79.2,102,79.3z M46.9,79.5c-1,0.9-2,1.7-2.8,2.7c-0.9,1-1.6,2.2-2.4,3.3
	c1.4,0.7,2.7,1.5,4.1,2.2c1.4,0.7,3,0.5,4.6,0.7c-0.2,0.4-0.5,0.6-0.8,0.8c-0.8,0.7-1.3,1.6-1.4,2.7c-0.2,1.5-0.2,3-0.3,4.4
	c0.7,0.1,1.4,0.1,2,0.3c2.2,0.7,4.2,0.6,6-0.9c0.1-0.1,0.3-0.1,0.6-0.1c-0.2,0.7-0.6,1.2-0.6,1.7c-0.1,2.2,0,4.5,0,6.8
	c1.7-0.4,3.3-0.6,4.8-1c1.5-0.4,2.6-1.7,3.9-2.8c0,0.5-0.1,0.7,0,1c0,0.8,0,1.6,0.1,2.4c0.4,2,2.2,3.1,2.8,4.8
	c1-0.6,1.9-1.2,2.8-1.6c1.5-0.7,2.5-1.8,3-3.4c0.1-0.5,0.3-0.9,0.5-1.3c0.1,0,0.1,0,0.2,0c0.1,0.2,0.2,0.5,0.3,0.7
	c0.4,1.4,1.1,2.6,2.3,3.4c1.2,0.7,2.5,1.4,3.7,2c0.5-0.8,1-1.6,1.6-2.4c0.9-1.1,1.3-2.4,1.2-3.9c0-0.7,0-1.3,0-2.2
	c1.3,1.3,2.4,2.5,4,2.9c1.5,0.4,3.1,0.6,4.8,0.9c0-1.6,0-3.1,0-4.5c0-1.5-0.4-2.8-0.9-4.2c0.6,0.2,1.1,0.5,1.5,0.7
	c1,0.6,2,1.1,3.2,0.8c1.4-0.3,2.7-0.6,4.1-0.9c-0.1-0.8-0.2-1.7-0.2-2.6c0-1.8-0.8-3.1-2-4.3c-0.2-0.2-0.5-0.4-0.6-0.6
	c-0.1-0.2-0.2-0.4-0.3-0.6c0.2,0,0.4-0.1,0.6,0c2,0.4,3.9,0.1,5.6-0.9c1-0.6,1.9-1.2,2.8-1.8c-0.5-0.7-1.1-1.4-1.6-2.1
	c-1.2-1.5-2.6-2.7-4.3-3.4c-0.2-0.1-0.3-0.3-0.5-0.4c0.2-0.1,0.4-0.3,0.6-0.3c0.7-0.1,1.4-0.1,2.1-0.2c2.4-0.4,3.9-2.2,5.5-3.8
	c-0.7-0.6-1.3-1.2-1.9-1.8c-0.9-0.8-1.8-1.3-3-1.5c-0.7-0.1-1.3-0.2-2-0.3c-0.3,0-0.6-0.1-0.7-0.5c-0.1-0.4,0.2-0.5,0.4-0.6
	c2.3-1.2,3.7-3.3,5.3-5.4c-1.4-0.8-2.8-1.5-4.3-2.2c-1-0.5-2-0.6-3-0.3c-0.4,0.1-0.8,0.2-1.2,0.3c-0.4-0.5-0.2-0.9,0.2-1.3
	c0.9-1,1.7-2.1,1.9-3.6c0.1-1.2,0.2-2.5,0.2-3.6C98.1,53.2,97,53,96,52.8c-1-0.2-2-0.2-2.9,0.3c-0.7,0.4-1.4,0.9-2.1,1.3
	c-0.2,0.2-0.5,0.3-0.8,0.4c0.4-1.6,0.9-3,1.1-4.5c0.1-1.5-0.1-3.1-0.1-4.7c-1,0.1-1.9,0.3-2.8,0.4c-2,0.3-3.8,1.1-5,2.9
	c-0.2,0.3-0.4,0.5-0.6,0.7c-0.1,0.1-0.3,0.2-0.5,0.3c-0.1-1.7,0.1-3.3-0.4-4.8c-0.5-1.5-1.6-2.8-2.4-4.1c-1.1,0.6-2,1.2-3,1.7
	c-1.1,0.6-1.9,1.5-2.3,2.7c-0.2,0.8-0.4,1.6-0.6,2.3c-0.1,0.2-0.2,0.4-0.4,0.6c-0.1-0.2-0.3-0.4-0.4-0.6c-0.3-0.9-0.6-1.8-0.9-2.6
	c-0.4-0.9-0.9-1.8-1.9-2.3c-1.1-0.5-2.3-1.1-3.4-1.6c-0.4,0.6-0.9,1.3-1.3,2c-0.4,0.7-0.9,1.4-1,2.2c-0.2,1.3,0,2.6,0,3.8
	c0,0.3,0,0.5,0,0.8c-0.1,0-0.1,0.1-0.2,0.1c-1.2-1.2-2.1-2.8-3.8-3.3c-1.6-0.5-3.3-0.7-5-1c0,1.1,0,2.1,0,3.1c0,1.6,0.1,3.1,0.7,4.6
	c0.1,0.2-0.1,0.5-0.1,0.7c-0.2,0-0.5,0-0.7-0.2c-1-0.6-2-1.3-3.2-1.1c-1.5,0.2-3,0.6-4.5,0.9c0.1,1.1,0.2,2.2,0.3,3.3
	c0.1,1.7,0.7,3,2,4.1c0.2,0.1,0.3,0.4,0.4,0.5c-1.6,0.2-3.2,0.3-4.6,0.8c-1.4,0.5-2.7,1.5-4.1,2.4c1.9,1.9,3,4.5,5.7,5.6
	c-1.6,0.6-2.9,1.1-4.2,1.7c-1.3,0.7-2.4,1.7-3.5,2.9C41.6,77.3,43.7,79.4,46.9,79.5z"/>
<path class="st2 yellow" d="M93.6,77.9c1.8,1.1,2.9,2.9,4.4,4.4c-1.1,0-1.9,0.6-2.8,1.1c-1.5,0.9-1.8,1-3.8,1.1c1,0.8,1.2,2,1.3,3.2
	c0.2,1,0.5,2,0.8,3c-1.4-0.2-2.9,0-4.4,0.3c-0.7,0.1-1.3-0.1-1.9-0.4c0.1,2.1,0.2,4.1,0.3,6.3c-1.1-1.1-2.5-0.9-3.8-1.2
	c-1-0.3-1.9-0.7-2.6-1.4c0,0-0.1,0-0.1,0.1c0.1,1.1-0.3,2-0.8,2.9c-0.6,1-1.1,2-1.3,3.1c-0.1,0-0.1,0-0.1,0
	c-0.9-1.1-2.1-1.8-3.3-2.5c-0.8-0.4-1.3-1.1-1.6-2c-0.4,1-0.9,1.7-1.8,2.1c-0.5,0.2-0.9,0.5-1.3,0.9c-0.6,0.5-1.2,1-1.9,1.6
	c-0.1-0.3-0.2-0.7-0.4-1.1c-0.4-0.8-0.9-1.5-1.3-2.3c-0.4-0.8-0.9-1.6-0.7-2.7c-0.1,0.1-0.2,0.2-0.3,0.2c-0.9,0.9-2,1.2-3.2,1.4
	c-1,0.2-2,0.4-2.9,1.1c0-2.1,0-4.1,0-6.2c-0.9,0.7-2,0.4-3,0.3c-1.1-0.1-2.2,0-3.2,0c0.2-0.8,0.4-1.6,0.6-2.5c0.1-0.5,0.1-1,0.1-1.5
	c0.1-0.8,0.3-1.5,0.9-2.2c-1.6,0.1-2.8-0.6-4-1.2c-0.7-0.4-1.5-0.6-2.3-0.9c1.2-1.4,2.5-2.9,3.7-4.4c-0.5-0.3-1.1-0.5-1.6-0.8
	c-0.4-0.2-0.8-0.5-1.2-0.7c-0.8-0.6-1.5-1.2-2.2-1.7c0.9-0.8,1.9-1.6,2.9-2.4c0.7-0.5,1.4-0.8,2.1-1.1c-1.3-1.4-2.6-2.8-4-4.4
	c1.1-0.1,2.1-0.6,3-1.2c1-0.6,2.1-1.1,3.4-1c-0.9-0.9-0.9-2-1.1-3c-0.2-1.1-0.5-2.1-0.8-3.1c0.5,0,1,0,1.6,0
	c0.8-0.1,1.5-0.2,2.2-0.3c0.9-0.1,1.7-0.2,2.4,0.3c-0.1-2-0.2-4.1-0.3-6.2c1.1,0.8,2.4,0.9,3.6,1.1c1.2,0.2,2.3,0.7,3.1,1.8
	c0-0.6,0-1.1,0-1.6c0-0.7,0.3-1.4,0.7-1.9c0.6-0.8,1.1-1.7,1.2-2.7c0-0.1,0.1-0.2,0.1-0.3c0.9,1.2,2.2,1.9,3.5,2.6
	c0.6,0.4,1,1,1.3,1.6c0.1,0.2,0.1,0.4,0.2,0.7c0.1-0.2,0.1-0.4,0.2-0.6c0.3-0.9,0.9-1.6,1.7-2c1.1-0.6,2.3-1.2,3-2.5
	c0.1,0.3,0.1,0.4,0.2,0.6c0.3,0.7,0.6,1.5,1,2.1c0.7,1.1,1.4,2.2,1.1,3.7c0.9-1.3,2.3-1.6,3.7-1.9c0.9-0.2,1.8-0.5,2.7-0.8
	c-0.2,2,0.2,4.1-0.3,6.2c1-0.8,2.1-0.6,3.2-0.5c1.1,0.1,2.2,0,3.4,0c-0.2,0.4-0.3,0.8-0.4,1.2c-0.2,0.7-0.3,1.4-0.4,2.2
	c-0.1,1.1-0.4,2-1.2,2.8c0.1,0,0.1,0.1,0.1,0.1c1.5-0.1,2.9,0.4,4.1,1.2c0.7,0.5,1.5,0.7,2.4,0.8c-1.5,1.5-2.5,3.3-4.3,4.6
	c0.2,0,0.4,0.1,0.6,0.1c0.8,0.2,1.6,0.6,2.2,1.1c0.8,0.7,1.7,1.4,2.5,2c-0.6,0.5-1.2,1-1.8,1.6C96,77,95,77.7,93.6,77.9
	C93.6,77.9,93.6,77.9,93.6,77.9z M54.8,78.1c-0.7,0.7-1.4,1.2-2,1.9c-0.6,0.7-1.1,1.5-1.7,2.4c1,0.5,1.9,1.1,2.9,1.6
	c1,0.5,2.1,0.4,3.2,0.5c-0.2,0.3-0.4,0.4-0.5,0.6c-0.5,0.5-0.9,1.1-1,1.9c-0.1,1-0.2,2.1-0.2,3.1c0.5,0.1,1,0.1,1.4,0.2
	c1.5,0.5,3,0.4,4.2-0.7c0.1-0.1,0.2,0,0.4-0.1c-0.2,0.5-0.4,0.8-0.4,1.2c0,1.6,0,3.2,0,4.8c1.2-0.3,2.3-0.4,3.4-0.7
	c1.1-0.3,1.8-1.2,2.8-2c0,0.3,0,0.5,0,0.7c0,0.6,0,1.1,0.1,1.7c0.2,1.4,1.6,2.2,2,3.4c0.7-0.4,1.3-0.8,2-1.1c1-0.5,1.8-1.3,2.1-2.4
	c0.1-0.3,0.2-0.6,0.4-0.9c0,0,0.1,0,0.1,0c0.1,0.2,0.2,0.3,0.2,0.5c0.3,1,0.8,1.9,1.7,2.4c0.9,0.5,1.8,1,2.6,1.4
	c0.4-0.5,0.7-1.1,1.1-1.7c0.6-0.8,0.9-1.7,0.9-2.7c0-0.5,0-0.9,0-1.6c0.9,0.9,1.7,1.8,2.8,2c1.1,0.3,2.2,0.4,3.4,0.6
	c0-1.1,0-2.2,0-3.2c0-1-0.3-2-0.7-3c0.4,0.1,0.7,0.3,1.1,0.5c0.7,0.4,1.4,0.7,2.2,0.6c1-0.2,1.9-0.4,2.9-0.7
	c-0.1-0.6-0.2-1.2-0.2-1.9c0-1.2-0.5-2.2-1.4-3c-0.2-0.1-0.3-0.3-0.4-0.4c-0.1-0.1-0.2-0.3-0.2-0.4c0.2,0,0.3-0.1,0.5,0
	c1.4,0.3,2.7,0.1,3.9-0.7c0.7-0.4,1.3-0.8,2-1.3c-0.4-0.5-0.8-1-1.2-1.5c-0.8-1-1.8-1.9-3-2.4c-0.1-0.1-0.2-0.2-0.3-0.3
	c0.1-0.1,0.3-0.2,0.4-0.2c0.5-0.1,1,0,1.5-0.1c1.7-0.3,2.7-1.6,3.9-2.7c-0.5-0.4-0.9-0.9-1.4-1.3c-0.6-0.6-1.3-0.9-2.1-1.1
	c-0.5-0.1-0.9-0.2-1.4-0.2c-0.2,0-0.4-0.1-0.5-0.3c-0.1-0.3,0.1-0.4,0.3-0.5c1.6-0.9,2.6-2.3,3.7-3.8c-1-0.5-2-1.1-3-1.6
	c-0.7-0.3-1.4-0.4-2.1-0.2c-0.3,0.1-0.6,0.1-0.9,0.2c-0.3-0.4-0.2-0.6,0.1-0.9c0.7-0.7,1.2-1.5,1.3-2.5c0.1-0.9,0.1-1.7,0.2-2.5
	c-0.7-0.1-1.5-0.3-2.3-0.4c-0.7-0.1-1.4-0.2-2,0.2c-0.5,0.3-1,0.6-1.5,0.9c-0.2,0.1-0.4,0.2-0.6,0.3c0.3-1.1,0.6-2.1,0.8-3.2
	c0.1-1.1-0.1-2.2-0.1-3.3c-0.7,0.1-1.3,0.2-2,0.3c-1.4,0.2-2.7,0.8-3.5,2.1c-0.1,0.2-0.3,0.4-0.4,0.5c-0.1,0.1-0.2,0.2-0.3,0.2
	c-0.1-1.2,0.1-2.4-0.3-3.4c-0.3-1-1.1-1.9-1.7-2.9c-0.8,0.4-1.4,0.8-2.1,1.2c-0.8,0.4-1.4,1.1-1.6,1.9c-0.2,0.5-0.3,1.1-0.4,1.7
	c0,0.2-0.2,0.3-0.3,0.4c-0.1-0.1-0.2-0.3-0.3-0.4c-0.2-0.6-0.4-1.2-0.6-1.8c-0.3-0.7-0.6-1.3-1.3-1.6c-0.8-0.4-1.6-0.8-2.4-1.2
	c-0.3,0.4-0.6,0.9-0.9,1.4c-0.3,0.5-0.7,1-0.7,1.5c-0.1,0.9,0,1.8,0,2.7c0,0.2,0,0.4,0,0.5c-0.1,0-0.1,0-0.2,0.1
	c-0.9-0.8-1.5-2-2.7-2.3c-1.1-0.3-2.3-0.5-3.6-0.7c0,0.8,0,1.5,0,2.2c0,1.1,0.1,2.2,0.5,3.3c0.1,0.2,0,0.4-0.1,0.5
	c-0.2,0-0.4,0-0.5-0.1c-0.7-0.4-1.4-0.9-2.3-0.8c-1.1,0.1-2.1,0.4-3.2,0.6c0.1,0.8,0.2,1.5,0.2,2.3c0.1,1.2,0.5,2.1,1.4,2.9
	c0.1,0.1,0.2,0.2,0.3,0.4c-1.1,0.2-2.2,0.2-3.2,0.6c-1,0.4-1.9,1.1-2.9,1.7c1.3,1.4,2.1,3.2,4,4c-1.1,0.4-2.1,0.8-3,1.2
	c-0.9,0.5-1.7,1.2-2.4,2C51,76.6,52.5,78,54.8,78.1z"/>
<path class="st3" d="M106.9,92.9c-0.3,0.2-0.6,0.3-0.9,0.4c-0.8,0.2-1.6,0.6-2.5,0.5c-0.5-0.1-1-0.2-1.7-0.2
	c0.2-0.3,0.3-0.4,0.5-0.4c0.7-0.2,1.4-0.5,1.7-1.6c-0.3,0.2-0.3,0.4-0.4,0.4c-0.6,0-1.2,0.1-1.9,0.2c-1,0.2-1.9,0-2.9,0.3
	c-0.5,0.1-1-0.1-1.5,0.2c-0.1,0.1-0.5,0-0.7,0c-0.6-0.3-1.2-0.3-1.8-0.6c-0.6-0.3-1.3-0.4-1.9-0.6c-1.4-0.5-2.9-0.9-4.3-1.7
	c-0.9,0-1.3-0.7-1.5-1.3c-0.3-0.8-0.5-1.7-0.5-2.6c0-0.5,0.2-1,0.2-1.4c0-2.7,0.3-5.5-0.5-8.2c-0.1-0.5-0.1-1-0.3-1.5
	c-0.4-1.1-0.7-2.2-1.5-3c-0.6-0.7-1.5-1.2-2.4-1.2c-0.7,0-1.3,0-2,0c-0.4,0-0.7-0.1-1.1-0.3c-1-0.6-1.8-1.4-2.5-2.3
	c-0.1-0.1-0.1-0.1-0.2-0.2c-0.2-0.3-0.4-0.6-0.5-0.9c-0.2-0.5-0.4-1-0.5-1.4c-0.1-0.4-0.2-0.9-0.2-1.3c0-0.1,0.1-0.2,0.2-0.3
	c0.5-0.2,1-0.4,1.4-0.6c1-0.6,1.7-1.4,2-2.5c0.1-0.3,0.2-0.6,0.2-1c0.1-0.6,0.2-1.3-0.1-1.9c0,0.5,0,1,0,1.5c0,0,0,0,0,0
	c0-0.5,0-1,0-1.6c-0.1-0.2-0.1-0.5-0.2-0.7c0-0.3-0.1-0.6,0-0.9c0.2-1.2,0.2-2.4-0.4-3.5c-0.2-0.3-0.3-0.7-0.5-1.1
	c-0.2-0.3-0.4-0.6-0.7-0.9c-0.3-0.3-0.6-0.5-0.9-0.7c-0.3-0.2-0.6-0.3-0.9-0.4c-0.5-0.1-1-0.1-1.4-0.1c-0.8-0.1-1.6,0.1-2.2,0.8
	c0,0.1-0.1,0.1-0.2,0.1c-0.3,0.1-0.7,0.1-1,0.2c-1.9,0.1-3.7,0.6-5.2,1.8c-0.7,0.6-1.4,1.3-1.8,2.1c-0.4,0.8-0.3,1.6,0.3,2.2
	c0,0,0,0.1,0,0.2c0,0.4-0.1,0.9-0.1,1.3c0,1.1,0.5,2.1,1.1,3c0.2,0.2,0.3,0.5,0.4,0.8c-0.1,0-0.3,0.1-0.4,0.2c-0.1,0-0.3,0-0.4,0
	c0,0,0,0,0,0c0.1,0,0.7,0.1,0.8,0.1c-0.1,0.4-0.1,0.8-0.2,1.2c-0.2,1-0.1,1.1,0.9,1.2c0.4,0,0.6,0.3,0.4,0.7c-0.1,0.3,0,0.5,0.3,0.7
	c0.1,0,0.2,0.1,0.3,0.1c-0.2,0.5-0.1,0.6,0.3,0.8c0.2,0.1,0.3,0.2,0.4,0.3c0.1,0.1,0.2,0.3,0.3,0.5c0.2,0.4,0.5,0.6,1,0.4
	c0.3-0.1,0.6-0.2,0.8-0.3c0.4-0.3,0.8-0.6,1.1-0.9c-0.1,0.4-0.3,0.9-0.6,1.3c-0.4,0.6-1,1.1-1.6,1.5c-0.5,0.5-1.1,0.6-1.7,0.7
	c-0.6,0-1.2,0-1.8,0c-0.9,0-1.6,0.3-2.2,0.9c-0.8,0.7-1.2,1.6-1.5,2.7c-0.2,0.7-0.3,1.4-0.5,2.2c-0.1,0.5-0.3,1.1-0.4,1.6
	c-0.1,0.6,0,1.2-0.3,1.8c0.1,1.5-0.1,2.9,0.2,4.4c0.2,1.4,0.2,2.9-0.4,4.4c-0.3,0.7-0.6,1.1-1.2,1.4c-0.7,0.3-1.4,0.7-2.2,0.9
	c-1.7,0.6-3.5,1.2-5.3,1.8c-0.5,0.2-1.2,0.6-1.7,0.3c-0.5-0.2-0.9-0.1-1.3-0.2c-0.5-0.1-0.9-0.3-1.4-0.2c-1.1,0.1-2.1-0.3-3.1-0.2
	c-0.3,0-0.4-0.5-0.8,0c0.3,0.3,0.6,0.6,0.9,0.9c0.3,0.2,0.8,0.1,1.1,0.7c-0.7,0.1-1.4,0.4-2,0.3c-0.9-0.2-1.9-0.2-2.7-0.8
	c-0.4-0.3-0.7-0.1-0.9,0.3c0.7,0.6,1.5,1.2,2.2,1.7c0.2,0.1,0.5,0.2,0.7,0.2c1.3,0.4,2.5,0.2,3.8,0.2c0.1,0,0.2,0,0.3,0
	c1.3-0.6,2.8-0.6,4.1-0.9c0.9-0.2,1.8-0.2,2.7-0.3c0.1,0,0.3,0,0.3,0c0.4-0.4,0.9-0.1,1.3-0.2c0.4-0.1,0.9-0.2,1.3-0.2
	c0.5-0.1,1,0.1,1.4-0.2c1.3,0,2.4-0.6,3.6-1c0.7-0.2,1.4-0.6,2.1-1.1c0.5-0.4,0.1-0.9,0.5-1.2c0.1-1.1,0.6-2.2,0.5-3.3
	c0-0.3-0.1-0.7,0-0.9c0.3-0.4,0.2-0.8,0.2-1.2c-0.1-0.5,0.2-0.9,0.3-1.3c0.1-0.9,0.2-1.7,0.3-2.6c0,0.8,0.4,1.6,0.5,2.4
	c0.2,1.1,0.7,2.2,1,3.3c0.3,1,0.7,2,0.5,3.1c-0.1,0.6-0.3,1.3-0.4,1.9c-0.2,1.1-0.8,2.8-1.4,3.6c-0.3,0.4-0.6,0.9-0.9,1.3
	c-0.4,0.5-1,0.9-1.6,0.8c-0.5-0.1-1.1,0-1.5-0.2c-0.4-0.3-0.9,0-1.3-0.3c-0.4-0.3-0.9-0.1-1.3-0.1c-0.1,0-0.3,0-0.3,0
	c-0.4-0.3-0.9-0.2-1.3-0.2c-0.5,0-0.9-0.2-1.4-0.2c-0.7,0-1.3-0.4-2-0.2c-0.5-0.4-1.1-0.1-1.5-0.3c-0.5-0.2-1-0.2-1.5-0.2
	c-0.6,0-1.3,0.1-1.9,0.2c-1.1,0.1-2,0.6-2.9,1.1c-0.8,0.5-1,1.2-1.1,1.9c-0.2,1.6,0.5,2.8,1.5,3.9c0.5,0.5,1.2,0.9,1.9,1.3
	c1.7,0.9,3.5,1.7,5.3,2.3c1.1,0.3,2.1,0.7,3.2,1c-0.7-0.1-1.2,0.4-1.8,0.7c0,0.4,0,0.7,0,1.1c0,0.4,0.2,0.9,0.5,1.1
	c0.5,0.3,0.8,0.8,1.3,1.1c0.6-0.1,1.2,0.1,1.8-0.2c0.4-0.2,0.9-0.3,1.4-0.5c0.5-0.2,1.1-0.3,1.6-0.2c0.5,0,1-0.2,1.5-0.3
	c2.5-0.1,5,0,7.5-0.2c2.5-0.2,5-0.2,7.5,0.1c2.4,0.3,4.9-0.1,7.3,0.2c0.9,0.1,1.7,0.3,2.6,0.5c0.9,0.3,1.7,0.5,2.5,0.4
	c0.5-0.3,0.8-0.5,1.1-0.7c0.6-0.4,0.8-1,1-1.6c0.2-0.5,0-0.7-0.5-1c-0.5-0.3-1-0.6-1.6-0.6c0.4-0.1,0.8-0.1,1.1-0.2
	c1.3-0.6,2.8-0.8,4.1-1.6c0.9-0.1,1.6-0.6,2.3-1c0.8-0.4,1.5-0.8,2.3-1.3c1.8-1.2,2.3-2.9,2.2-5c0-0.1-0.1-0.3-0.2-0.4
	c-0.3-0.8-1-1.3-1.7-1.5c-1.1-0.5-2.4-0.7-3.6-0.7c-0.7,0-1.3-0.1-2,0.2c-0.4,0.2-0.9-0.1-1.4,0.2c-0.4,0.2-1,0.1-1.5,0.2
	c-0.5,0.1-1.1,0.2-1.6,0.3c-0.6,0.1-1.2,0.1-1.8,0.2c-0.7,0.2-1.5,0.1-2.2,0.3c-0.5,0.1-1.1,0.3-1.6,0.2c-0.7,0.6-1.1,0-1.5-0.3
	c-1.1-0.9-1.8-2-2.2-3.4c-0.5-1.4-0.7-2.8-1-4.2c0-0.2-0.1-0.5,0-0.7c0.3-0.8,0.5-1.7,0.8-2.5c0.5-1.6,1.1-3.2,1-5
	c0,0,0.1-0.1,0.1-0.1c0.3,0.6,0.4,1.3,0.3,2c0,0.2-0.1,0.4,0,0.5c0.4,0.4,0.1,1,0.2,1.4c0.2,0.5,0.2,1,0.2,1.6
	c0,1.2,0.3,2.3,0.5,3.4c0.1,0.2,0.1,0.5,0.1,0.8c0,0.6,0.4,1.1,0.8,1.4c0.5,0.3,1.1,0.5,1.7,0.7c0.7,0.3,1.5,0.5,2.2,0.7
	c0.9,0.3,1.8,0.6,2.7,0.5c0.2,0,0.4-0.1,0.5,0c0.4,0.3,0.9,0.2,1.4,0.2c0.5,0.1,0.9,0.2,1.4,0.2c1,0,2,0.3,3,0.3
	c0.5,0,1,0.2,1.6,0.4c0.7,0.2,1.5,0.5,2.2,0.5c0.9,0.1,1.8,0,2.8,0c0.5,0,0.9-0.1,1.4-0.2c0.1,0,0.2-0.1,0.3-0.1
	c0.8-0.6,1.7-1.1,2.3-1.9C107.3,93,107.2,92.6,106.9,92.9z M78.5,60.5C78.5,60.5,78.5,60.5,78.5,60.5c-0.2,0.4-0.4,0.8-0.6,1.2
	c0,0-0.1,0-0.1-0.1C78,61.3,78.3,60.9,78.5,60.5z M76.9,50.3c0.2,0.2,0.4,0.4,0.6,0.7c0,0,0,0-0.1,0.1C77.2,50.8,77,50.6,76.9,50.3
	C76.8,50.3,76.9,50.3,76.9,50.3z M63.7,54.1c0.1-0.5,0.4-0.9,0.8-1.2C64.2,53.3,63.9,53.7,63.7,54.1z M67.6,51
	c-0.5,0.2-1,0.4-1.5,0.6c0.9-0.6,1.9-1,3-1.1C68.6,50.7,68.1,50.8,67.6,51z M76.3,50c-0.6-0.2-1.1-0.5-1.6-0.7
	C75.3,49.3,75.8,49.5,76.3,50z"/>
<path class="st4" d="M73.4,78c0,0,0.5-2.2,2.6-2.2c2,0,2,1.9,2,2.2c0,0.2-0.2,3.5-4.6,6.2c-5-2.9-4.6-6-4.6-6.2c0-0.2,0-2.2,2-2.2
	C72.9,75.8,73.4,78,73.4,78"/>
</svg>
